<mxfile host="app.diagrams.net" modified="2020-11-06T03:02:32.909Z" agent="5.0 (Windows NT 10.0; Win64; x64) AppleWebKit/537.36 (KHTML, like Gecko) Chrome/86.0.4240.111 Safari/537.36" etag="bcvJz5r5Y3iDGJ0hi36H" version="13.9.2" type="github">
  <diagram id="pei0yE4xSCauYD3dITiz" name="Page-1">
    <mxGraphModel dx="2489" dy="761" grid="1" gridSize="10" guides="1" tooltips="1" connect="1" arrows="1" fold="1" page="1" pageScale="1" pageWidth="827" pageHeight="1169" math="0" shadow="0">
      <root>
        <mxCell id="0" />
        <mxCell id="1" parent="0" />
        <mxCell id="7MeD4XDEcG4lgqhzSJPx-1" value="" style="rounded=0;whiteSpace=wrap;html=1;fillColor=#f5f5f5;strokeColor=#666666;fontColor=#333333;" vertex="1" parent="1">
          <mxGeometry x="65" y="130" width="1405" height="430" as="geometry" />
        </mxCell>
        <mxCell id="7MeD4XDEcG4lgqhzSJPx-2" value="" style="rounded=0;whiteSpace=wrap;html=1;align=center;fillColor=#ffe6cc;strokeColor=#d79b00;" vertex="1" parent="1">
          <mxGeometry x="245" y="245" width="800" height="275" as="geometry" />
        </mxCell>
        <mxCell id="7MeD4XDEcG4lgqhzSJPx-3" value="" style="edgeStyle=orthogonalEdgeStyle;rounded=0;orthogonalLoop=1;jettySize=auto;html=1;" edge="1" parent="1" source="7MeD4XDEcG4lgqhzSJPx-4" target="7MeD4XDEcG4lgqhzSJPx-6">
          <mxGeometry relative="1" as="geometry" />
        </mxCell>
        <mxCell id="7MeD4XDEcG4lgqhzSJPx-4" value="NVIDIA SDK&lt;br&gt;（采集、编码等）" style="whiteSpace=wrap;html=1;" vertex="1" parent="1">
          <mxGeometry x="485" y="340" width="120" height="60" as="geometry" />
        </mxCell>
        <mxCell id="7MeD4XDEcG4lgqhzSJPx-5" value="" style="edgeStyle=orthogonalEdgeStyle;rounded=0;orthogonalLoop=1;jettySize=auto;html=1;" edge="1" parent="1" source="7MeD4XDEcG4lgqhzSJPx-6" target="7MeD4XDEcG4lgqhzSJPx-8">
          <mxGeometry relative="1" as="geometry" />
        </mxCell>
        <mxCell id="7MeD4XDEcG4lgqhzSJPx-6" value="业务app&lt;br&gt;（编码后数据中转）" style="whiteSpace=wrap;html=1;" vertex="1" parent="1">
          <mxGeometry x="685" y="340" width="120" height="60" as="geometry" />
        </mxCell>
        <mxCell id="7MeD4XDEcG4lgqhzSJPx-7" value="" style="edgeStyle=orthogonalEdgeStyle;rounded=0;orthogonalLoop=1;jettySize=auto;html=1;" edge="1" parent="1" source="7MeD4XDEcG4lgqhzSJPx-8" target="7MeD4XDEcG4lgqhzSJPx-10">
          <mxGeometry relative="1" as="geometry" />
        </mxCell>
        <mxCell id="7MeD4XDEcG4lgqhzSJPx-8" value="HYSDK&lt;br&gt;（拆包、发送）" style="whiteSpace=wrap;html=1;" vertex="1" parent="1">
          <mxGeometry x="885" y="340" width="120" height="60" as="geometry" />
        </mxCell>
        <mxCell id="7MeD4XDEcG4lgqhzSJPx-9" value="" style="edgeStyle=orthogonalEdgeStyle;rounded=0;orthogonalLoop=1;jettySize=auto;html=1;" edge="1" parent="1" source="7MeD4XDEcG4lgqhzSJPx-10" target="7MeD4XDEcG4lgqhzSJPx-12">
          <mxGeometry relative="1" as="geometry" />
        </mxCell>
        <mxCell id="7MeD4XDEcG4lgqhzSJPx-10" value="上行VP" style="whiteSpace=wrap;html=1;" vertex="1" parent="1">
          <mxGeometry x="1085" y="340" width="120" height="60" as="geometry" />
        </mxCell>
        <mxCell id="7MeD4XDEcG4lgqhzSJPx-11" style="edgeStyle=orthogonalEdgeStyle;rounded=0;orthogonalLoop=1;jettySize=auto;html=1;entryX=0;entryY=0.5;entryDx=0;entryDy=0;fontSize=12;" edge="1" parent="1" source="7MeD4XDEcG4lgqhzSJPx-12" target="7MeD4XDEcG4lgqhzSJPx-18">
          <mxGeometry relative="1" as="geometry">
            <Array as="points">
              <mxPoint x="1430" y="370" />
              <mxPoint x="1430" y="590" />
              <mxPoint x="-140" y="590" />
              <mxPoint x="-140" y="370" />
            </Array>
            <mxPoint x="1510" y="400" as="sourcePoint" />
          </mxGeometry>
        </mxCell>
        <mxCell id="7MeD4XDEcG4lgqhzSJPx-12" value="WebRTC" style="whiteSpace=wrap;html=1;" vertex="1" parent="1">
          <mxGeometry x="1270" y="340" width="120" height="60" as="geometry" />
        </mxCell>
        <mxCell id="7MeD4XDEcG4lgqhzSJPx-13" value="" style="edgeStyle=orthogonalEdgeStyle;rounded=0;orthogonalLoop=1;jettySize=auto;html=1;" edge="1" parent="1" source="7MeD4XDEcG4lgqhzSJPx-14" target="7MeD4XDEcG4lgqhzSJPx-4">
          <mxGeometry relative="1" as="geometry" />
        </mxCell>
        <mxCell id="7MeD4XDEcG4lgqhzSJPx-14" value="业务app&lt;br&gt;（信令中转）" style="whiteSpace=wrap;html=1;" vertex="1" parent="1">
          <mxGeometry x="285" y="340" width="120" height="60" as="geometry" />
        </mxCell>
        <mxCell id="7MeD4XDEcG4lgqhzSJPx-15" value="" style="edgeStyle=orthogonalEdgeStyle;rounded=0;orthogonalLoop=1;jettySize=auto;html=1;" edge="1" parent="1" source="7MeD4XDEcG4lgqhzSJPx-16" target="7MeD4XDEcG4lgqhzSJPx-14">
          <mxGeometry relative="1" as="geometry" />
        </mxCell>
        <mxCell id="7MeD4XDEcG4lgqhzSJPx-16" value="信令服务器" style="whiteSpace=wrap;html=1;" vertex="1" parent="1">
          <mxGeometry x="85" y="340" width="120" height="60" as="geometry" />
        </mxCell>
        <mxCell id="7MeD4XDEcG4lgqhzSJPx-17" value="" style="edgeStyle=orthogonalEdgeStyle;rounded=0;orthogonalLoop=1;jettySize=auto;html=1;fontSize=12;" edge="1" parent="1" source="7MeD4XDEcG4lgqhzSJPx-18" target="7MeD4XDEcG4lgqhzSJPx-16">
          <mxGeometry relative="1" as="geometry" />
        </mxCell>
        <mxCell id="7MeD4XDEcG4lgqhzSJPx-18" value="Web浏览器&lt;br&gt;(webrtc SDK)" style="whiteSpace=wrap;html=1;" vertex="1" parent="1">
          <mxGeometry x="-115" y="340" width="120" height="60" as="geometry" />
        </mxCell>
        <mxCell id="7MeD4XDEcG4lgqhzSJPx-19" value="PC云主机" style="text;html=1;align=center;verticalAlign=middle;resizable=0;points=[];autosize=1;fontSize=22;" vertex="1" parent="1">
          <mxGeometry x="590" y="275" width="110" height="30" as="geometry" />
        </mxCell>
        <mxCell id="7MeD4XDEcG4lgqhzSJPx-20" value="同机房" style="text;html=1;align=center;verticalAlign=middle;resizable=0;points=[];autosize=1;fontSize=28;" vertex="1" parent="1">
          <mxGeometry x="755.31" y="160" width="100" height="40" as="geometry" />
        </mxCell>
        <mxCell id="7MeD4XDEcG4lgqhzSJPx-21" value="" style="shape=curlyBracket;whiteSpace=wrap;html=1;rounded=1;fontSize=22;rotation=-90;" vertex="1" parent="1">
          <mxGeometry x="535" y="360" width="20" height="120" as="geometry" />
        </mxCell>
        <mxCell id="7MeD4XDEcG4lgqhzSJPx-22" value="" style="shape=curlyBracket;whiteSpace=wrap;html=1;rounded=1;fontSize=22;rotation=-90;" vertex="1" parent="1">
          <mxGeometry x="735.31" y="282.82" width="20" height="274.38" as="geometry" />
        </mxCell>
        <mxCell id="7MeD4XDEcG4lgqhzSJPx-23" value="" style="shape=curlyBracket;whiteSpace=wrap;html=1;rounded=1;fontSize=22;rotation=-90;" vertex="1" parent="1">
          <mxGeometry x="935" y="360" width="20" height="120" as="geometry" />
        </mxCell>
        <mxCell id="7MeD4XDEcG4lgqhzSJPx-24" value="" style="shape=curlyBracket;whiteSpace=wrap;html=1;rounded=1;fontSize=22;rotation=-90;" vertex="1" parent="1">
          <mxGeometry x="1135" y="360" width="20" height="120" as="geometry" />
        </mxCell>
        <mxCell id="7MeD4XDEcG4lgqhzSJPx-25" value="&lt;div style=&quot;text-align: center&quot;&gt;&lt;span&gt;采集编码延时 6ms&lt;/span&gt;&lt;/div&gt;&lt;div style=&quot;text-align: center&quot;&gt;&lt;span&gt;(采集编码一体，采集视为0，编码6ms)&lt;/span&gt;&lt;/div&gt;" style="text;html=1;align=left;verticalAlign=middle;resizable=0;points=[];autosize=1;fontSize=12;" vertex="1" parent="1">
          <mxGeometry x="440" y="435" width="220" height="30" as="geometry" />
        </mxCell>
        <mxCell id="7MeD4XDEcG4lgqhzSJPx-26" value="" style="shape=curlyBracket;whiteSpace=wrap;html=1;rounded=1;fontSize=22;rotation=-90;" vertex="1" parent="1">
          <mxGeometry x="138.75" y="278.75" width="20" height="282.51" as="geometry" />
        </mxCell>
        <mxCell id="7MeD4XDEcG4lgqhzSJPx-27" value="SDK内部延时 2ms" style="text;html=1;align=center;verticalAlign=middle;resizable=0;points=[];autosize=1;fontSize=12;" vertex="1" parent="1">
          <mxGeometry x="890" y="440" width="110" height="20" as="geometry" />
        </mxCell>
        <mxCell id="7MeD4XDEcG4lgqhzSJPx-28" value="编码后传送给sdk延时 1ms" style="text;html=1;align=center;verticalAlign=middle;resizable=0;points=[];autosize=1;fontSize=12;" vertex="1" parent="1">
          <mxGeometry x="665.31" y="440" width="160" height="20" as="geometry" />
        </mxCell>
        <mxCell id="7MeD4XDEcG4lgqhzSJPx-30" value="上行传输延时 1ms" style="text;html=1;align=center;verticalAlign=middle;resizable=0;points=[];autosize=1;fontSize=12;" vertex="1" parent="1">
          <mxGeometry x="990" y="288" width="110" height="20" as="geometry" />
        </mxCell>
        <mxCell id="7MeD4XDEcG4lgqhzSJPx-31" value="内部延时 0ms" style="text;html=1;align=center;verticalAlign=middle;resizable=0;points=[];autosize=1;fontSize=12;" vertex="1" parent="1">
          <mxGeometry x="1100" y="440" width="90" height="20" as="geometry" />
        </mxCell>
        <mxCell id="7MeD4XDEcG4lgqhzSJPx-32" value="" style="shape=curlyBracket;whiteSpace=wrap;html=1;rounded=1;fontSize=22;rotation=90;" vertex="1" parent="1">
          <mxGeometry x="1224" y="282.62" width="20" height="76.88" as="geometry" />
        </mxCell>
        <mxCell id="7MeD4XDEcG4lgqhzSJPx-33" value="" style="shape=curlyBracket;whiteSpace=wrap;html=1;rounded=1;fontSize=22;rotation=-90;" vertex="1" parent="1">
          <mxGeometry x="1320" y="360.76" width="20" height="120" as="geometry" />
        </mxCell>
        <mxCell id="7MeD4XDEcG4lgqhzSJPx-34" value="VP至WebRTC延时 5ms" style="text;html=1;align=center;verticalAlign=middle;resizable=0;points=[];autosize=1;fontSize=12;" vertex="1" parent="1">
          <mxGeometry x="1164" y="288" width="140" height="20" as="geometry" />
        </mxCell>
        <mxCell id="7MeD4XDEcG4lgqhzSJPx-35" value="内部延时0ms" style="text;html=1;align=center;verticalAlign=middle;resizable=0;points=[];autosize=1;fontSize=12;" vertex="1" parent="1">
          <mxGeometry x="1285" y="440" width="90" height="20" as="geometry" />
        </mxCell>
        <mxCell id="7MeD4XDEcG4lgqhzSJPx-36" value="信令上行延时 4ms" style="text;html=1;align=center;verticalAlign=middle;resizable=0;points=[];autosize=1;fontSize=12;" vertex="1" parent="1">
          <mxGeometry x="93.75" y="440" width="110" height="20" as="geometry" />
        </mxCell>
        <mxCell id="7MeD4XDEcG4lgqhzSJPx-37" value="" style="shape=curlyBracket;whiteSpace=wrap;html=1;rounded=1;fontSize=22;rotation=-90;" vertex="1" parent="1">
          <mxGeometry x="634.91" y="-175.7" width="20" height="1575.79" as="geometry" />
        </mxCell>
        <mxCell id="7MeD4XDEcG4lgqhzSJPx-38" value="下行传输延时 55ms" style="text;html=1;align=center;verticalAlign=middle;resizable=0;points=[];autosize=1;fontSize=12;" vertex="1" parent="1">
          <mxGeometry x="615" y="630" width="120" height="20" as="geometry" />
        </mxCell>
        <mxCell id="7MeD4XDEcG4lgqhzSJPx-39" value="" style="shape=curlyBracket;whiteSpace=wrap;html=1;rounded=1;fontSize=22;rotation=-90;" vertex="1" parent="1">
          <mxGeometry x="641.75" y="117.75" width="20" height="714.61" as="geometry" />
        </mxCell>
        <mxCell id="7MeD4XDEcG4lgqhzSJPx-40" value="云端总延时 9ms" style="text;html=1;align=center;verticalAlign=middle;resizable=0;points=[];autosize=1;fontSize=12;" vertex="1" parent="1">
          <mxGeometry x="600" y="490" width="100" height="20" as="geometry" />
        </mxCell>
        <mxCell id="7MeD4XDEcG4lgqhzSJPx-41" value="" style="shape=curlyBracket;whiteSpace=wrap;html=1;rounded=1;fontSize=22;rotation=-90;" vertex="1" parent="1">
          <mxGeometry x="-65" y="361.5" width="20" height="118.51" as="geometry" />
        </mxCell>
        <mxCell id="7MeD4XDEcG4lgqhzSJPx-42" value="播放延时74ms&lt;br&gt;(浏览器收包解帧渲染等延时，&lt;br&gt;由webrtc api提供)" style="text;html=1;align=center;verticalAlign=middle;resizable=0;points=[];autosize=1;fontSize=12;" vertex="1" parent="1">
          <mxGeometry x="-145" y="425" width="180" height="50" as="geometry" />
        </mxCell>
        <mxCell id="7MeD4XDEcG4lgqhzSJPx-43" value="Web端云游戏延时分布 总延时 155ms" style="text;html=1;align=center;verticalAlign=middle;resizable=0;points=[];autosize=1;fontSize=22;" vertex="1" parent="1">
          <mxGeometry x="485" y="80" width="380" height="30" as="geometry" />
        </mxCell>
        <mxCell id="7MeD4XDEcG4lgqhzSJPx-49" value="" style="shape=curlyBracket;whiteSpace=wrap;html=1;rounded=1;rotation=90;size=0.5;" vertex="1" parent="1">
          <mxGeometry x="1034.44" y="281.71" width="20" height="79.73" as="geometry" />
        </mxCell>
      </root>
    </mxGraphModel>
  </diagram>
</mxfile>
